HIERARCHY
ROOT SpineBase
{
  OFFSET 0.000000 0.000000 0.000000
  CHANNELS 6 Xposition Yposition Zposition Zrotation Xrotation Yrotation
  JOINT SpineMid
  {
    OFFSET 0.000000 28.877596 0.000000
    CHANNELS 3 Zrotation Xrotation Yrotation
    JOINT SpineShoulder
    {
      OFFSET -0.213965 21.418381 -0.694327
      CHANNELS 3 Zrotation Xrotation Yrotation
      JOINT Neck
      {
        OFFSET -0.110138 7.082858 -0.611721
        CHANNELS 3 Zrotation Xrotation Yrotation
        JOINT Head
        {
          OFFSET -2.568393 12.070791 1.911024
          CHANNELS 3 Zrotation Xrotation Yrotation
          End Site
          {
            OFFSET 0 0 0
          }
        }
      }
      JOINT ShoulderLeft
      {
        OFFSET -11.503177 -3.297392 10.270465
        CHANNELS 3 Zrotation Xrotation Yrotation
        JOINT ElbowLeft
        {
          OFFSET -2.914079 -28.612407 8.486841
          CHANNELS 3 Zrotation Xrotation Yrotation
          JOINT WristLeft
          {
            OFFSET 1.064316 -25.206234 -6.597041
            CHANNELS 3 Zrotation Xrotation Yrotation
            JOINT HandLeft
            {
              OFFSET 0.476366 -3.554563 -1.954079
              CHANNELS 3 Zrotation Xrotation Yrotation
              JOINT HandTipLeft
              {
                OFFSET -0.229719 -6.836596 -2.516218
                CHANNELS 3 Zrotation Xrotation Yrotation
                End Site
                {
                  OFFSET 0 0 0
                }
              }
              JOINT ThumbLeft
              {
                OFFSET -1.066943 0.482951 -0.343743
                CHANNELS 3 Zrotation Xrotation Yrotation
                End Site
                {
                  OFFSET 0 0 0
                }
              }
            }
          }
        }
      }
      JOINT ShoulderRight
      {
        OFFSET 7.012860 -4.297108 -12.430956
        CHANNELS 3 Zrotation Xrotation Yrotation
        JOINT ElbowRight
        {
          OFFSET 5.822954 -22.070176 -4.544827
          CHANNELS 3 Zrotation Xrotation Yrotation
          JOINT WristRight
          {
            OFFSET -3.103628 -22.043752 -4.106767
            CHANNELS 3 Zrotation Xrotation Yrotation
            JOINT HandRight
            {
              OFFSET -0.747102 -6.082608 -0.005708
              CHANNELS 3 Zrotation Xrotation Yrotation
              JOINT HandTipRight
              {
                OFFSET -0.324071 -5.656680 0.796479
                CHANNELS 3 Zrotation Xrotation Yrotation
                End Site
                {
                  OFFSET 0 0 0
                }
              }
              JOINT ThumbRight
              {
                OFFSET -2.522156 1.748799 0.148569
                CHANNELS 3 Zrotation Xrotation Yrotation
                End Site
                {
                  OFFSET 0 0 0
                }
              }
            }
          }
        }
      }
    }
  }
  JOINT HipLeft
  {
    OFFSET -4.663277 0.627255 0.990004
    CHANNELS 3 Zrotation Xrotation Yrotation
    JOINT KneeLeft
    {
      OFFSET 4.171819 -27.065758 7.429838
      CHANNELS 3 Zrotation Xrotation Yrotation
      JOINT AnkleLeft
      {
        OFFSET 9.822999 -35.278920 7.382117
        CHANNELS 3 Zrotation Xrotation Yrotation
        JOINT FootLeft
        {
          OFFSET -2.776253 -6.806353 -2.998876
          CHANNELS 3 Zrotation Xrotation Yrotation
          End Site
          {
            OFFSET 0 0 0
          }
        }
      }
    }
  }
  JOINT HipRight
  {
    OFFSET 4.034433 0.878693 -7.743765
    CHANNELS 3 Zrotation Xrotation Yrotation
    JOINT KneeRight
    {
      OFFSET 10.787957 -31.232973 5.724592
      CHANNELS 3 Zrotation Xrotation Yrotation
      JOINT AnkleRight
      {
        OFFSET 6.758917 -30.123701 5.263013
        CHANNELS 3 Zrotation Xrotation Yrotation
        JOINT FootRight
        {
          OFFSET -3.694912 -6.597376 4.148418
          CHANNELS 3 Zrotation Xrotation Yrotation
          End Site
          {
            OFFSET 0 0 0
          }
        }
      }
    }
  }
}
MOTION
Frames: 6
Frame Time: 0.033333
33.349496 70.416168 343.033957 -0.000000 0.000000 45.118525 -0.000000 0.000000 -45.118525 -0.000000 0.000000 0.000000 -0.000000 0.000000 0.000000 0.000000 0.000000 0.000000 -0.000000 0.000000 0.000000 -0.000000 0.000000 0.000000 -0.000000 0.000000 0.000000 -0.000000 0.000000 0.000000 0.000000 0.000000 0.000000 0.000000 0.000000 0.000000 -0.000000 0.000000 0.000000 -0.000000 0.000000 0.000000 -0.000000 0.000000 0.000000 -0.000000 0.000000 0.000000 0.000000 0.000000 0.000000 0.000000 0.000000 0.000000 -0.000000 0.000000 -45.118525 -0.000000 0.000000 0.000000 -0.000000 0.000000 0.000000 0.000000 0.000000 0.000000 -0.000000 0.000000 -45.118525 -0.000000 0.000000 0.000000 -0.000000 0.000000 0.000000 0.000000 0.000000 0.000000
33.430081 70.495324 342.797749 0.134063 0.400084 45.234939 -0.378469 -0.186552 -45.236024 -0.000000 0.000000 0.000000 -0.000000 0.000000 0.000000 0.000000 0.000000 0.000000 -0.000000 0.000000 0.000000 -0.000000 0.000000 0.000000 2.203723 0.111668 -1.195039 -0.981913 3.152432 0.579915 0.000000 0.000000 0.000000 0.000000 0.000000 0.000000 -0.000000 0.000000 0.000000 -0.000000 0.000000 0.000000 0.372113 0.715100 -0.090541 -1.461921 1.657661 -0.195011 0.000000 0.000000 0.000000 0.000000 0.000000 0.000000 -0.378469 -0.186552 -45.236024 -0.000000 0.000000 0.000000 4.810124 -6.139939 0.671748 0.000000 0.000000 0.000000 -1.185170 -0.394941 -45.565679 0.416007 0.721889 0.322941 -2.641316 11.131928 -8.033928 0.000000 0.000000 0.000000
33.504113 70.555647 342.635648 0.259172 0.671675 45.329514 -0.659881 -0.287880 -45.332691 -0.000000 0.000000 0.000000 0.203599 -1.392884 -0.326652 0.000000 0.000000 0.000000 -0.000000 0.000000 0.000000 -0.000000 0.000000 0.000000 4.267436 0.122668 -2.321910 -1.980254 6.113875 1.069052 0.000000 0.000000 0.000000 0.000000 0.000000 0.000000 0.231368 -0.886670 -0.280093 -0.235728 0.885521 0.283705 0.586336 1.276926 -0.164032 -2.798002 3.505033 -0.393449 0.000000 0.000000 0.000000 0.000000 0.000000 0.000000 -1.382740 -0.800694 -45.513395 0.140736 0.875013 0.172762 8.015298 -9.940560 1.313578 0.000000 0.000000 0.000000 -1.984144 -0.597290 -45.873814 0.700093 1.165862 0.523770 -4.030875 23.569960 -16.854234 0.000000 0.000000 0.000000
33.571593 70.597137 342.547656 0.375086 0.813726 45.402811 -0.842785 -0.304220 -45.407712 -0.000000 0.000000 0.000000 0.305562 -1.853604 -0.438745 0.000000 0.000000 0.000000 -0.000000 0.000000 0.000000 -0.000000 0.000000 0.000000 6.041654 0.030421 -3.297221 -2.858733 8.783164 1.432787 0.000000 0.000000 0.000000 0.000000 0.000000 0.000000 0.276864 -1.154844 -0.359441 -0.284160 1.153070 0.365091 0.615112 1.647359 -0.211910 -3.931822 5.463678 -0.574228 0.000000 0.000000 0.000000 0.000000 0.000000 0.000000 -1.751277 -0.880691 -45.641080 1.209094 0.851106 0.354164 8.715507 -11.538254 1.443951 0.000000 0.000000 0.000000 -2.409627 -0.616429 -46.042608 0.863122 1.344418 0.612180 -3.683798 35.274921 -25.892171 0.000000 0.000000 0.000000
33.632520 70.619794 342.533772 0.481592 0.825597 45.455254 -0.926229 -0.235860 -45.460631 0.298559 0.798599 0.036143 0.108373 -2.954575 -0.551600 0.000000 0.000000 0.000000 -0.299092 -0.798400 -0.040308 -0.000000 0.000000 0.000000 7.369769 -0.155584 -4.034381 -3.457137 11.075775 1.630405 0.000000 0.000000 0.000000 0.000000 0.000000 0.000000 -0.021626 -2.110922 -0.437514 -0.287528 1.310340 0.407539 0.440716 1.796713 -0.228130 -4.789078 7.427695 -0.720067 0.000000 0.000000 0.000000 0.000000 0.000000 0.000000 -1.901623 -0.748407 -45.718556 1.422745 0.779497 0.381816 8.942788 -11.461161 1.295409 0.000000 0.000000 0.000000 -2.464395 -0.455329 -46.071330 0.909299 1.259897 0.591423 -1.803065 44.702715 -34.603608 0.000000 0.000000 0.000000
33.686895 70.623618 342.593995 0.578508 0.707031 45.487105 -0.909747 -0.083118 -45.491335 0.394491 0.779283 0.043529 0.116820 -3.078748 -0.603538 0.000000 0.000000 0.000000 -0.395120 -0.778964 -0.048898 -0.000000 0.000000 0.000000 8.112362 -0.416906 -4.457736 -3.619834 12.925054 1.621521 0.000000 0.000000 0.000000 0.000000 0.000000 0.000000 -0.159642 -2.140992 -0.451699 -0.777367 1.993387 0.435584 0.585249 1.071051 -0.215517 -5.307857 9.279054 -0.822474 0.000000 0.000000 0.000000 0.000000 0.000000 0.000000 -1.832429 -0.403906 -45.745708 1.535462 0.529138 0.366961 7.999516 -9.675387 0.734480 0.000000 0.000000 0.000000 -2.141285 -0.110610 -45.958604 0.836461 0.904339 0.458586 0.925200 51.571192 -42.558278 0.000000 0.000000 0.000000
